<?xml version="1.0" encoding="UTF-8"?><svg id="Layer_1" xmlns="http://www.w3.org/2000/svg" viewBox="0 0 512.06 272.79"><path fill="#ffffff" d="M136.53,117.46c10.38-9.48,27.45-7.83,37.84.69l92.9,89.93L470.49,5.4c26.59-17.37,53.12,10.52,36.29,36.31l-223.8,223.59c-14.38,12.62-25.87,7.65-38.99-2.81-19.59-15.63-95.46-89.72-108.36-108.4-6.97-10.09-9.42-27.21.88-36.63Z"/><path fill="#ffffff" d="M18.13,111.6c12.67-2.88,17.78.67,27.12,7.83,22.51,17.27,89.72,84.47,106.99,106.99,22.54,29.39-5.37,59.04-35.85,38.63-14.87-9.96-97.15-92.68-108.55-108.2-11.81-16.08-11.71-40.25,10.3-45.25Z"/><path fill="#ffffff" d="M351.75.4c22.75-3.29,39,19.52,25.68,39.77-5.83,8.86-77.64,82.88-86.35,88.72-29.75,19.94-56.93-7.52-37.14-37.14,7.13-10.67,73.6-77.37,84.46-85.06,4.19-2.97,8.11-5.54,13.35-6.29Z"/></svg>