<?xml version="1.0" encoding="UTF-8"?><svg id="Layer_1" xmlns="http://www.w3.org/2000/svg" viewBox="0 0 512 512"><path fill="#ffffff" d="M231.25,1.72l23.85,3.45c155.44,30.18,227.87,206.53,130.01,335.68-1.93,2.54-10.45,10.24-9.8,12.73l129.92,128.34c14.03,15.57-3.82,36.22-21.33,25.31l-133.16-131c-47.65,36.46-106.63,52.88-166.47,44.42C97.51,408.4,24.05,341.18,6.21,255.15l-4.28-27.99c.46-9.78-.62-20.09,0-29.79C8.55,93.75,97.73,8.29,200.48,1.72h30.77ZM201.27,34.79C65.39,44.66-11.92,198.33,66.24,312.29c88.39,128.88,295.34,89.69,326.52-64.09,24.01-118.43-72.66-222.05-191.49-213.41Z"/></svg>