<?xml version="1.0" encoding="UTF-8"?><svg id="Layer_1" xmlns="http://www.w3.org/2000/svg" viewBox="0 0 437.27 437.54"><path fill="#ffffffff" d="M233.23,0l31.59,4.69c180.27,39.42,235.22,272.44,87.46,387.28-127.11,98.79-314.38,28.19-347.42-127.21L.18,233.15c.41-9.6-.56-19.46,0-29.04C6.47,96.64,96.73,6.29,204.21,0h29.03ZM209.15,34.41C62.87,42.41-17.58,211.08,71.19,329.07c78.26,104.02,235.06,96.91,304.11-13.15,78.94-125.82-18.68-289.57-166.14-281.51Z"/><path fill="#ffffffff" d="M299.6,144.54c16.26-2.81,26.77,14.21,17.15,27.4l-115.51,115.89c-6.47,6.25-15.68,7.01-23.07,1.68-15.96-19.44-42.38-37.74-57.22-57.2-13.59-17.81,10.19-38,26.07-22.66l42.13,41.37,106.13-104.83c1.34-.68,2.82-1.4,4.32-1.66Z"/></svg>