<?xml version="1.0" encoding="UTF-8"?><svg id="Layer_1" xmlns="http://www.w3.org/2000/svg" viewBox="0 0 328.62 328.39"><path fill="#fd4b4bff" d="M312.46,328.39h-10.27l-9.32-5.12-128.86-128.29L35.62,323.27l-9.32,5.12h-10.27c-8.26-2.8-13.32-8.49-16.04-16.68v-8.34c1.39-3.51,2.33-7.19,5.12-9.96l128.97-128.95L5.76,36.15c-2.81-3.1-4.47-6.68-5.76-10.6v-8.34C4.36,1.71,21.19-5.44,34.59,4.75l129.89,129.18L293.55,5.03c20.63-15.98,46.3,9.59,29.81,30.45l-128.94,128.98,129.86,129.98c9.35,12.67,2.66,29.38-11.81,33.95Z"/></svg>