<?xml version="1.0" encoding="UTF-8"?><svg id="Layer_1" xmlns="http://www.w3.org/2000/svg" viewBox="0 0 512 512"><polygon fill="#ffffff" points="91.54 238.14 201.49 238.14 201.49 274.57 91.54 274.57 91.54 347.44 -.21 256.67 91.54 164.62 91.54 238.14"/><polygon fill="#ffffff"  points="165.06 91.75 256.46 0 347.23 91.75 274.36 91.75 274.36 201.7 237.93 201.7 237.93 91.75 165.06 91.75"/><polygon fill="#ffffff"  points="420.75 347.44 420.75 274.57 310.79 274.57 310.79 238.14 420.75 238.14 420.75 165.27 511.79 256.12 420.75 347.44"/><polygon fill="#ffffff"  points="274.36 311.01 274.36 420.96 347.23 420.96 256.38 512 165.06 420.96 237.93 420.96 237.93 311.01 274.36 311.01"/></svg>