<?xml version="1.0" encoding="UTF-8"?><svg id="Layer_1" xmlns="http://www.w3.org/2000/svg" viewBox="0 0 512 512"><path fill="#ffffff" d="M511.67,45.22c.46,3.6.43,12.39,0,16.03-.94,7.87-6.65,19.67-11.59,25.96-5.58,7.11-24.4,26.28-31.42,31.67-.75.58-1.18,1.63-2.39,1.4l-74.64-75.41C413.48,24.42,428.24-1.83,462.16.1c23.12,1.32,46.55,21.89,49.5,45.12Z"/><path fill="#ffffff" d="M58.03,85.58l177.76-.19c25.42,3.04,26.44,37.67,2.03,42.87l-176.07.1c-10.38.83-18.79,9-19.57,19.48v302.56c.7,10.21,9.23,18.82,19.52,19.53h302.37c10.71-.68,18.08-9.34,19.48-19.57l.08-176.2c5.7-24.94,40.3-23.27,42.94,2.93-2.66,56.81,3.58,116.89.06,173.31-1.92,30.78-22.7,56.48-53.56,61.59H52.69c-28.81-4.25-50.69-28.82-53.55-57.59l.05-311.52c3.85-30.8,27.98-54.41,58.84-57.31Z"/><path fill="#ffffff" d="M368.17,68.33l74.99,76.04-169.76,169.74c-24.33,4.34-53.35,14.27-77.65,16.44-11.04.98-15.26-3.21-14.27-14.28,2.17-24.32,12.09-53.35,16.43-77.7l170.26-170.24Z"/></svg>