<?xml version="1.0" encoding="UTF-8"?><svg id="Layer_1" xmlns="http://www.w3.org/2000/svg" viewBox="0 0 409.02 347.44"><defs><style>.cls-1{fill:#010101;}</style></defs><path class="cls-1" d="M0,303.29V44.6C4.66,19.56,23.49,2.41,49.07.65c29.95,1.69,62.16-2.15,91.84.04,35.89,2.65,49.84,37.23,74.25,57.5,4.53,3.77,7.59,5.16,13.56,5.6,42.76,3.18,89.82-3.22,132.61-.07,24.55,1.81,45.15,21.34,47.46,45.95-.83,66.3,1.74,132.98-1.31,199.07-4.66,18.9-20.38,33.22-39.19,37.46-109.07,1.63-218.7,1.67-327.76-.02-19.79-3.68-38.24-22.69-40.53-42.91v.02ZM47.72,32.03c-8.74,1.55-16.15,8.67-16.6,17.73v248.37c.53,9.87,9.16,17.35,18.76,17.96,104.75-.74,209.83,1.35,314.39-1.05,7.23-2.52,13.23-8.96,13.43-16.92V112.83c-.36-9.52-8.75-17.15-17.96-17.97l-136.35-.19c-27.16-3.06-47.07-33.72-65.27-52.1-5.52-5.57-9.5-10.02-17.95-10.79-29.25-2.67-62.76,1.9-92.44.24h-.01Z"/></svg>