<?xml version="1.0" encoding="UTF-8"?><svg id="Layer_1" xmlns="http://www.w3.org/2000/svg" viewBox="0 0 384 384"><path fill="#ffffff" d="M155.7,383.12c-9.09-2.28-17.58-7.22-22.04-15.72-7.97-15.2-.75-41.25-22.11-47.36-18.06-5.16-33.55,15.83-55.39,7.46-8.71-3.34-12.39-9.05-17.08-16.55-8.96-14.34-24.51-38.8-30.73-53.69-3.09-7.39-3.31-15.08-.47-22.64,5.88-15.65,27.49-21.1,32.03-35.98,7.75-25.39-27.05-30.6-32.8-51.33-2.67-9.62-.99-15.86,3.25-24.4,7.71-15.49,19.43-34.93,28.72-49.72,4.66-7.41,8.02-12.88,16.56-16.33,22.05-8.91,37.17,12.06,55.31,7.38,19.29-4.98,16.17-26.03,20.27-40.98,3.56-12.97,14.38-21.33,27.82-22.26,18.06-1.26,47.97-1.41,65.93,0,10.34.81,20.2,6.94,24.84,16.28,7.38,14.88,1.07,39.8,20.76,46.47,20.12,6.81,37.95-19.72,62.04-4.39,5.31,3.38,8.62,9.09,11.85,14.3,9.24,14.87,21.09,34.23,28.71,49.74,5.1,10.39,6.17,20.23-.08,30.55-9.26,15.31-36.21,21.47-29.89,44.11,3.69,13.2,20.57,19.24,28.39,29.9,6.39,8.72,7.49,19.35,3.33,29.3-8.62,20.62-26.45,43.4-37.32,63.33-20.51,21.59-39.84-1.05-58.81-1.68-28.82-.96-20.56,34.86-30.71,50.71-4.12,6.44-12.86,12.52-20.52,13.49-21.81,2.78-49.43-2.08-71.86,0ZM222.99,30.96h-62.72c-2.13,9.09-2.45,19.03-5.29,27.93-7.79,24.38-33.46,39.45-58.7,35.33-10.28-1.67-19.41-7.47-29.59-9.56l-30.66,53.44.6,1.39c11.53,9.12,24.26,17.84,30.13,31.92,6.23,14.96,5.43,31.56-2.25,45.78-6.58,12.19-18.41,19.37-28.52,28.32l30.7,53.96c12.49-2.97,23.77-10.09,36.95-10.43,23.44-.61,45.47,15.62,51.85,37.93,2.45,8.58,2.48,17.81,5.16,26.33l62.34-.12c2.65-13.17,3-26.31,9.95-38.21,9.39-16.06,28.61-26.57,47.38-25.88,12.9.48,23.97,7.52,36.24,10.38l30.66-53.44-.6-1.39c-21.41-15.03-38.17-32.74-33.64-61.06,3.48-21.74,18.38-32.07,34.28-44.97l-30.7-53.96c-12.46,2.92-23.84,10.09-36.95,10.43-18.82.49-38.18-10.58-47.2-26.88-6.47-11.69-6.82-24.44-9.42-37.25Z"/><path fill="#ffffff" d="M187.73,118.42c53.51-3.11,92.07,51.01,72.59,100.72-20.78,53.02-92.81,63.15-127.37,17.63-35.96-47.35-4.26-114.93,54.79-118.36ZM189.23,148.27c-56.37,2.8-53.56,88.26,2.77,87.9,58.25-.37,56.9-90.86-2.77-87.9Z"/></svg>