<?xml version="1.0" encoding="UTF-8"?><svg id="Layer_1" xmlns="http://www.w3.org/2000/svg" viewBox="0 0 383.2 383.37"><path fill="#ffffff" d="M363.04,383.37H20.21c-10.52-2.6-17.21-9.07-20.21-19.46v-8.98c3.04-10.42,10.28-17.93,21.34-19.45h339.81c23.28,2.18,30.2,32.15,10.62,44.28l-8.74,3.62Z"/><path fill="#ffffff" d="M167.67,82.46l-44.15,43.8c-23.64,20-54.39-9.54-34.08-34.08,29.34-25.49,55.8-60.85,85.33-85.34,10.72-8.89,22.46-9.22,33.34-.37,25.76,29.35,60.48,55.77,85.34,85.32,20.85,24.78-9.59,54.47-33.71,34.46l-44.15-43.8v187.51c0,1.9-2.32,6.73-3.36,8.62-8.78,16.09-32.98,15.7-41.57-.37-.66-1.24-2.98-6.55-2.98-7.5V82.46Z"/></svg>