<?xml version="1.0" encoding="UTF-8"?><svg id="Layer_1" xmlns="http://www.w3.org/2000/svg" viewBox="0 0 506.02 448.59"><path fill="#ffffff" d="M505.6,362.58c-7.75,76.67-102.45,112.92-161.35,63.19-3.35-2.82-14.84-16.36-16.83-16.74H56.96c-29.61-2.87-53.25-26.35-56.7-55.85C1.16,251.31-1.66,149.07,1.69,47.42,8.14,22.61,27.89,4.45,53.15.14l336.51-.14c29.62,3.13,52.9,27.25,55.72,56.85l-.05,203.37c27.6,11.44,49.56,36.38,57.24,65.38,1.01,3.81,2.7,10.58,3.03,14.25.54,5.81.58,16.95,0,22.72ZM429.6,254.9V58.81c0-20.67-21.5-41.81-41.96-42.96l-328.7-.05c-23.66,2.28-41.07,20.2-42.94,43.96l.05,290.45c.55,19.99,21.63,42.99,41.93,42.99h261.07c-31.33-69.78,20.44-145.4,97.21-140.26,2.05.14,12.84,2.46,13.34,1.96ZM399.79,269.03c-58.88,5.49-92.4,70.44-63.48,122.22s109.31,55.39,141.46,2.26c34.98-57.8-10.92-130.72-77.98-124.47Z"/><path fill="#ffffff" d="M155.95,94.13c8.7-1.1,16.11.55,23.97,4.15,39.25,25.44,84.5,45.55,123.26,71.24,24.67,16.36,28.15,44.96,6.32,65.45-42.04,23.01-83.5,51.73-126,73.44-28.09,14.35-59.28,1.77-61.9-31.25-3.75-47.42,2.65-100,.31-147.94,2.04-17.43,16.46-32.86,34.03-35.09ZM144.7,292.09c5.7,5.72,13.96,7.13,21.77,6.19,45.85-24.14,91.21-50.66,135.25-78.01,8.81-11.12,7.4-26.82-4.07-35.33l-126.42-73.02c-16.83-7.23-33.57,5.11-33.83,22.92,2.63,45.02-3.38,93.8,0,138.37.51,6.69,2.43,13.98,7.3,18.87Z"/><path fill="#ffffff" d="M415.78,342.82h37.01c2.17,0,5.55,5.85,5.42,8.32-.11,2.08-3.34,7.49-5.42,7.49h-37.01v37.04c0,4.02-8,6.67-11.83,4.92-.51-.23-3.96-3.65-3.96-3.93v-38.03h-37.01c-6.88,0-6.88-15.81,0-15.81h37.01v-38.03c0-.28,3.45-3.69,3.96-3.93,3.83-1.75,11.83.9,11.83,4.92v37.04Z"/></svg>