<?xml version="1.0" encoding="UTF-8"?><svg id="Layer_1" xmlns="http://www.w3.org/2000/svg" viewBox="0 0 485.52 485"><path d="M225.01.56c191.79-12.62,323.39,191.22,229.49,360.46-86.38,155.67-308.11,166.99-410.46,21.21C-63.96,228.4,38.22,12.85,225.01.56ZM54.21,156.11h78.48c4.62-11.43,8.24-23.23,13.02-34.6,8.47-20.13,19.23-39.19,31.66-57.1l18.09-24.13c-61.53,14.58-116.03,57.61-141.25,115.83ZM430.9,156.11c-25.19-58.25-79.73-101.24-141.25-115.83l18.09,24.13c12.38,17.93,23.26,36.95,31.66,57.1,4.75,11.41,7.98,23.33,13.02,34.6h78.48ZM315.08,156.11c-14.43-42.94-38.77-83.62-72.92-113.58-33.12,30.9-58.04,70.49-72.13,113.58h145.05ZM125.65,190.75H41.22c-8.49,34.05-8.49,69.87,0,103.92h84.43c-5.92-34.31-5.92-69.6,0-103.92ZM323.59,190.89h-162.08c-7.41,33.89-7.41,69.73,0,103.63h162.08c7.41-33.9,7.41-69.75,0-103.63ZM443.89,190.75h-84.43c5.97,34.32,5.82,69.6,0,103.92h84.43c8.49-34.05,8.49-69.87,0-103.92ZM132.68,329.31H54.21c25.28,58.22,79.72,101.27,141.25,115.83l-18.09-24.13c-12.42-17.92-23.22-36.97-31.66-57.1-4.78-11.39-8.26-23.22-13.02-34.6ZM315.08,329.31h-145.05c14.07,43.11,39.07,82.64,72.13,113.58,34.12-30.02,58.49-70.61,72.92-113.58ZM430.9,329.31h-78.48c-5.04,11.28-8.27,23.2-13.02,34.6-8.4,20.15-19.28,39.18-31.66,57.1l-18.09,24.13c61.49-14.62,116.05-57.6,141.25-115.83Z"/></svg>